<mxfile host="app.diagrams.net" agent="Mozilla/5.0 (Windows NT 10.0; Win64; x64) AppleWebKit/537.36 (KHTML, like Gecko) Chrome/140.0.0.0 Safari/537.36" version="28.2.3">
  <diagram name="第 1 页" id="ktbgdnzE6EwHR5D7C_3F">
    <mxGraphModel dx="4392" dy="3047" grid="1" gridSize="10" guides="1" tooltips="1" connect="1" arrows="1" fold="1" page="1" pageScale="1" pageWidth="827" pageHeight="1169" math="0" shadow="0">
      <root>
        <mxCell id="0" />
        <mxCell id="1" parent="0" />
        <mxCell id="BARgVbZ0Zno3lgLKfqqs-4" value="" style="rounded=0;whiteSpace=wrap;html=1;dashed=1;" parent="1" vertex="1">
          <mxGeometry x="1238" y="-130" width="830" height="300" as="geometry" />
        </mxCell>
        <mxCell id="co5VTCmra7gZKyppTI4R-13" style="edgeStyle=orthogonalEdgeStyle;rounded=0;orthogonalLoop=1;jettySize=auto;html=1;entryX=0;entryY=0.5;entryDx=0;entryDy=0;" parent="1" source="co5VTCmra7gZKyppTI4R-1" target="co5VTCmra7gZKyppTI4R-9" edge="1">
          <mxGeometry relative="1" as="geometry" />
        </mxCell>
        <mxCell id="co5VTCmra7gZKyppTI4R-1" value="" style="shape=cylinder3;whiteSpace=wrap;html=1;boundedLbl=1;backgroundOutline=1;size=15;rotation=90;fillColor=#CCFF99;" parent="1" vertex="1">
          <mxGeometry x="-77" y="-45" width="50" height="120" as="geometry" />
        </mxCell>
        <mxCell id="co5VTCmra7gZKyppTI4R-2" value="queue" style="text;html=1;align=center;verticalAlign=middle;whiteSpace=wrap;rounded=0;" parent="1" vertex="1">
          <mxGeometry x="-88" width="60" height="30" as="geometry" />
        </mxCell>
        <mxCell id="co5VTCmra7gZKyppTI4R-12" style="edgeStyle=orthogonalEdgeStyle;rounded=0;orthogonalLoop=1;jettySize=auto;html=1;" parent="1" source="co5VTCmra7gZKyppTI4R-5" target="co5VTCmra7gZKyppTI4R-9" edge="1">
          <mxGeometry relative="1" as="geometry" />
        </mxCell>
        <mxCell id="co5VTCmra7gZKyppTI4R-5" value="" style="shape=cylinder3;whiteSpace=wrap;html=1;boundedLbl=1;backgroundOutline=1;size=15;rotation=90;fillColor=#CCFF99;" parent="1" vertex="1">
          <mxGeometry x="-76" y="-130" width="50" height="120" as="geometry" />
        </mxCell>
        <mxCell id="co5VTCmra7gZKyppTI4R-6" value="queue" style="text;html=1;align=center;verticalAlign=middle;whiteSpace=wrap;rounded=0;" parent="1" vertex="1">
          <mxGeometry x="-87" y="-85" width="60" height="30" as="geometry" />
        </mxCell>
        <mxCell id="co5VTCmra7gZKyppTI4R-17" style="edgeStyle=orthogonalEdgeStyle;rounded=0;orthogonalLoop=1;jettySize=auto;html=1;" parent="1" source="co5VTCmra7gZKyppTI4R-9" target="co5VTCmra7gZKyppTI4R-15" edge="1">
          <mxGeometry relative="1" as="geometry" />
        </mxCell>
        <mxCell id="co5VTCmra7gZKyppTI4R-9" value="综合静态检查" style="rounded=0;whiteSpace=wrap;html=1;" parent="1" vertex="1">
          <mxGeometry x="113" y="-80" width="180" height="100" as="geometry" />
        </mxCell>
        <mxCell id="co5VTCmra7gZKyppTI4R-19" style="edgeStyle=orthogonalEdgeStyle;rounded=0;orthogonalLoop=1;jettySize=auto;html=1;entryX=0;entryY=0.5;entryDx=0;entryDy=0;" parent="1" source="co5VTCmra7gZKyppTI4R-15" target="co5VTCmra7gZKyppTI4R-18" edge="1">
          <mxGeometry relative="1" as="geometry" />
        </mxCell>
        <mxCell id="co5VTCmra7gZKyppTI4R-15" value="" style="shape=cylinder3;whiteSpace=wrap;html=1;boundedLbl=1;backgroundOutline=1;size=15;rotation=90;fillColor=#CCFF99;" parent="1" vertex="1">
          <mxGeometry x="363" y="-90" width="50" height="120" as="geometry" />
        </mxCell>
        <mxCell id="co5VTCmra7gZKyppTI4R-16" value="queue" style="text;html=1;align=center;verticalAlign=middle;whiteSpace=wrap;rounded=0;" parent="1" vertex="1">
          <mxGeometry x="353" y="-45" width="60" height="30" as="geometry" />
        </mxCell>
        <mxCell id="co5VTCmra7gZKyppTI4R-18" value="综合代币决策器" style="rounded=0;whiteSpace=wrap;html=1;" parent="1" vertex="1">
          <mxGeometry x="503" y="-75" width="180" height="90" as="geometry" />
        </mxCell>
        <mxCell id="co5VTCmra7gZKyppTI4R-24" style="edgeStyle=orthogonalEdgeStyle;rounded=0;orthogonalLoop=1;jettySize=auto;html=1;" parent="1" source="co5VTCmra7gZKyppTI4R-21" edge="1">
          <mxGeometry relative="1" as="geometry">
            <mxPoint x="893" y="-30" as="targetPoint" />
          </mxGeometry>
        </mxCell>
        <mxCell id="co5VTCmra7gZKyppTI4R-21" value="" style="shape=cylinder3;whiteSpace=wrap;html=1;boundedLbl=1;backgroundOutline=1;size=15;rotation=90;fillColor=#CCFF99;" parent="1" vertex="1">
          <mxGeometry x="763" y="-90" width="50" height="120" as="geometry" />
        </mxCell>
        <mxCell id="co5VTCmra7gZKyppTI4R-22" value="queue" style="text;html=1;align=center;verticalAlign=middle;whiteSpace=wrap;rounded=0;" parent="1" vertex="1">
          <mxGeometry x="753" y="-45" width="60" height="30" as="geometry" />
        </mxCell>
        <mxCell id="co5VTCmra7gZKyppTI4R-23" style="edgeStyle=orthogonalEdgeStyle;rounded=0;orthogonalLoop=1;jettySize=auto;html=1;entryX=0.5;entryY=1;entryDx=0;entryDy=0;entryPerimeter=0;" parent="1" source="co5VTCmra7gZKyppTI4R-18" target="co5VTCmra7gZKyppTI4R-21" edge="1">
          <mxGeometry relative="1" as="geometry" />
        </mxCell>
        <mxCell id="co5VTCmra7gZKyppTI4R-28" style="edgeStyle=orthogonalEdgeStyle;rounded=0;orthogonalLoop=1;jettySize=auto;html=1;" parent="1" source="co5VTCmra7gZKyppTI4R-25" target="co5VTCmra7gZKyppTI4R-26" edge="1">
          <mxGeometry relative="1" as="geometry" />
        </mxCell>
        <mxCell id="zfgaVZReXKqY33bPYIgX-35" style="edgeStyle=orthogonalEdgeStyle;rounded=0;orthogonalLoop=1;jettySize=auto;html=1;entryX=0;entryY=0.5;entryDx=0;entryDy=0;endArrow=none;endFill=0;dashed=1;" edge="1" parent="1" source="co5VTCmra7gZKyppTI4R-25" target="zfgaVZReXKqY33bPYIgX-30">
          <mxGeometry relative="1" as="geometry">
            <Array as="points">
              <mxPoint x="968" y="-300" />
            </Array>
          </mxGeometry>
        </mxCell>
        <mxCell id="co5VTCmra7gZKyppTI4R-25" value="过滤掉重复订单&lt;br&gt;（同用户ID同策略同代币）" style="rounded=0;whiteSpace=wrap;html=1;" parent="1" vertex="1">
          <mxGeometry x="893" y="-60" width="150" height="60" as="geometry" />
        </mxCell>
        <mxCell id="co5VTCmra7gZKyppTI4R-29" style="edgeStyle=orthogonalEdgeStyle;rounded=0;orthogonalLoop=1;jettySize=auto;html=1;" parent="1" source="co5VTCmra7gZKyppTI4R-26" edge="1">
          <mxGeometry relative="1" as="geometry">
            <mxPoint x="1273" y="-30" as="targetPoint" />
          </mxGeometry>
        </mxCell>
        <mxCell id="co5VTCmra7gZKyppTI4R-26" value="" style="shape=cylinder3;whiteSpace=wrap;html=1;boundedLbl=1;backgroundOutline=1;size=15;rotation=90;fillColor=#CCFF99;" parent="1" vertex="1">
          <mxGeometry x="1133" y="-90" width="50" height="120" as="geometry" />
        </mxCell>
        <mxCell id="co5VTCmra7gZKyppTI4R-27" value="queue" style="text;html=1;align=center;verticalAlign=middle;whiteSpace=wrap;rounded=0;" parent="1" vertex="1">
          <mxGeometry x="1123" y="-45" width="60" height="30" as="geometry" />
        </mxCell>
        <mxCell id="co5VTCmra7gZKyppTI4R-30" value="主循环" style="rounded=0;whiteSpace=wrap;html=1;" parent="1" vertex="1">
          <mxGeometry x="1273" y="-60" width="120" height="60" as="geometry" />
        </mxCell>
        <mxCell id="zfgaVZReXKqY33bPYIgX-3" style="edgeStyle=orthogonalEdgeStyle;rounded=0;orthogonalLoop=1;jettySize=auto;html=1;entryX=0;entryY=0.5;entryDx=0;entryDy=0;" edge="1" parent="1" source="co5VTCmra7gZKyppTI4R-37" target="zfgaVZReXKqY33bPYIgX-2">
          <mxGeometry relative="1" as="geometry" />
        </mxCell>
        <mxCell id="co5VTCmra7gZKyppTI4R-37" value="社媒信息抓取" style="rounded=0;whiteSpace=wrap;html=1;" parent="1" vertex="1">
          <mxGeometry x="-447" y="-100" width="120" height="60" as="geometry" />
        </mxCell>
        <mxCell id="zfgaVZReXKqY33bPYIgX-4" style="edgeStyle=orthogonalEdgeStyle;rounded=0;orthogonalLoop=1;jettySize=auto;html=1;entryX=0;entryY=0.5;entryDx=0;entryDy=0;" edge="1" parent="1" source="co5VTCmra7gZKyppTI4R-39" target="zfgaVZReXKqY33bPYIgX-1">
          <mxGeometry relative="1" as="geometry" />
        </mxCell>
        <mxCell id="co5VTCmra7gZKyppTI4R-39" value="链上信息抓取" style="rounded=0;whiteSpace=wrap;html=1;" parent="1" vertex="1">
          <mxGeometry x="-447" y="-15" width="120" height="60" as="geometry" />
        </mxCell>
        <mxCell id="co5VTCmra7gZKyppTI4R-62" style="edgeStyle=orthogonalEdgeStyle;rounded=0;orthogonalLoop=1;jettySize=auto;html=1;entryX=0.5;entryY=1;entryDx=0;entryDy=0;" parent="1" source="co5VTCmra7gZKyppTI4R-47" target="co5VTCmra7gZKyppTI4R-58" edge="1">
          <mxGeometry relative="1" as="geometry" />
        </mxCell>
        <mxCell id="co5VTCmra7gZKyppTI4R-47" value="" style="shape=cylinder3;whiteSpace=wrap;html=1;boundedLbl=1;backgroundOutline=1;size=15;rotation=90;fillColor=#CCFF99;" parent="1" vertex="1">
          <mxGeometry x="-232" y="-285" width="50" height="120" as="geometry" />
        </mxCell>
        <mxCell id="co5VTCmra7gZKyppTI4R-48" value="queue" style="text;html=1;align=center;verticalAlign=middle;whiteSpace=wrap;rounded=0;fillColor=#CCFF99;" parent="1" vertex="1">
          <mxGeometry x="-243" y="-240" width="60" height="30" as="geometry" />
        </mxCell>
        <mxCell id="co5VTCmra7gZKyppTI4R-65" style="edgeStyle=orthogonalEdgeStyle;rounded=0;orthogonalLoop=1;jettySize=auto;html=1;entryX=0.5;entryY=0;entryDx=0;entryDy=0;" parent="1" source="co5VTCmra7gZKyppTI4R-50" target="co5VTCmra7gZKyppTI4R-63" edge="1">
          <mxGeometry relative="1" as="geometry" />
        </mxCell>
        <mxCell id="co5VTCmra7gZKyppTI4R-50" value="" style="shape=cylinder3;whiteSpace=wrap;html=1;boundedLbl=1;backgroundOutline=1;size=15;rotation=90;fillColor=#CCFF99;" parent="1" vertex="1">
          <mxGeometry x="-232" y="125" width="50" height="120" as="geometry" />
        </mxCell>
        <mxCell id="co5VTCmra7gZKyppTI4R-51" value="queue" style="text;html=1;align=center;verticalAlign=middle;whiteSpace=wrap;rounded=0;fillColor=#CCFF99;" parent="1" vertex="1">
          <mxGeometry x="-243" y="170" width="60" height="30" as="geometry" />
        </mxCell>
        <mxCell id="co5VTCmra7gZKyppTI4R-58" value="写入ES数据库" style="rounded=0;whiteSpace=wrap;html=1;" parent="1" vertex="1">
          <mxGeometry x="-267" y="-375" width="120" height="60" as="geometry" />
        </mxCell>
        <mxCell id="co5VTCmra7gZKyppTI4R-63" value="写入ES数据库" style="rounded=0;whiteSpace=wrap;html=1;" parent="1" vertex="1">
          <mxGeometry x="-267" y="270" width="120" height="60" as="geometry" />
        </mxCell>
        <mxCell id="BARgVbZ0Zno3lgLKfqqs-3" value="预期检查" style="rounded=0;whiteSpace=wrap;html=1;" parent="1" vertex="1">
          <mxGeometry x="1601" y="-60" width="120" height="60" as="geometry" />
        </mxCell>
        <mxCell id="BARgVbZ0Zno3lgLKfqqs-5" value="结果验证" style="rounded=0;whiteSpace=wrap;html=1;" parent="1" vertex="1">
          <mxGeometry x="1601" y="50" width="120" height="60" as="geometry" />
        </mxCell>
        <mxCell id="zfgaVZReXKqY33bPYIgX-37" style="edgeStyle=orthogonalEdgeStyle;rounded=0;orthogonalLoop=1;jettySize=auto;html=1;entryX=1;entryY=0.5;entryDx=0;entryDy=0;endArrow=none;endFill=0;dashed=1;" edge="1" parent="1" source="BARgVbZ0Zno3lgLKfqqs-7" target="zfgaVZReXKqY33bPYIgX-30">
          <mxGeometry relative="1" as="geometry">
            <Array as="points">
              <mxPoint x="1983" y="-300" />
            </Array>
          </mxGeometry>
        </mxCell>
        <mxCell id="BARgVbZ0Zno3lgLKfqqs-7" value="交易中心" style="rounded=0;whiteSpace=wrap;html=1;" parent="1" vertex="1">
          <mxGeometry x="1923" y="-60" width="120" height="60" as="geometry" />
        </mxCell>
        <mxCell id="zfgaVZReXKqY33bPYIgX-1" value="exchange" style="ellipse;whiteSpace=wrap;html=1;" vertex="1" parent="1">
          <mxGeometry x="-267" y="-20" width="120" height="70" as="geometry" />
        </mxCell>
        <mxCell id="zfgaVZReXKqY33bPYIgX-2" value="exchange" style="ellipse;whiteSpace=wrap;html=1;" vertex="1" parent="1">
          <mxGeometry x="-267" y="-105" width="120" height="70" as="geometry" />
        </mxCell>
        <mxCell id="zfgaVZReXKqY33bPYIgX-5" style="edgeStyle=orthogonalEdgeStyle;rounded=0;orthogonalLoop=1;jettySize=auto;html=1;entryX=0.5;entryY=1;entryDx=0;entryDy=0;entryPerimeter=0;" edge="1" parent="1" source="zfgaVZReXKqY33bPYIgX-2" target="co5VTCmra7gZKyppTI4R-5">
          <mxGeometry relative="1" as="geometry" />
        </mxCell>
        <mxCell id="zfgaVZReXKqY33bPYIgX-7" style="edgeStyle=orthogonalEdgeStyle;rounded=0;orthogonalLoop=1;jettySize=auto;html=1;entryX=1;entryY=0.5;entryDx=0;entryDy=0;entryPerimeter=0;" edge="1" parent="1" source="zfgaVZReXKqY33bPYIgX-2" target="co5VTCmra7gZKyppTI4R-47">
          <mxGeometry relative="1" as="geometry" />
        </mxCell>
        <mxCell id="zfgaVZReXKqY33bPYIgX-8" style="edgeStyle=orthogonalEdgeStyle;rounded=0;orthogonalLoop=1;jettySize=auto;html=1;entryX=0;entryY=0.5;entryDx=0;entryDy=0;entryPerimeter=0;" edge="1" parent="1" source="zfgaVZReXKqY33bPYIgX-1" target="co5VTCmra7gZKyppTI4R-50">
          <mxGeometry relative="1" as="geometry" />
        </mxCell>
        <mxCell id="zfgaVZReXKqY33bPYIgX-9" style="edgeStyle=orthogonalEdgeStyle;rounded=0;orthogonalLoop=1;jettySize=auto;html=1;entryX=0.5;entryY=1;entryDx=0;entryDy=0;entryPerimeter=0;" edge="1" parent="1" source="zfgaVZReXKqY33bPYIgX-1" target="co5VTCmra7gZKyppTI4R-1">
          <mxGeometry relative="1" as="geometry" />
        </mxCell>
        <mxCell id="zfgaVZReXKqY33bPYIgX-21" style="edgeStyle=orthogonalEdgeStyle;rounded=0;orthogonalLoop=1;jettySize=auto;html=1;entryX=0;entryY=0.5;entryDx=0;entryDy=0;" edge="1" parent="1" source="zfgaVZReXKqY33bPYIgX-10" target="BARgVbZ0Zno3lgLKfqqs-3">
          <mxGeometry relative="1" as="geometry" />
        </mxCell>
        <mxCell id="zfgaVZReXKqY33bPYIgX-10" value="" style="shape=cylinder3;whiteSpace=wrap;html=1;boundedLbl=1;backgroundOutline=1;size=15;rotation=90;fillColor=#CCFF99;" vertex="1" parent="1">
          <mxGeometry x="1463" y="-90" width="50" height="120" as="geometry" />
        </mxCell>
        <mxCell id="zfgaVZReXKqY33bPYIgX-11" value="queue" style="text;html=1;align=center;verticalAlign=middle;whiteSpace=wrap;rounded=0;" vertex="1" parent="1">
          <mxGeometry x="1453" y="-45" width="60" height="30" as="geometry" />
        </mxCell>
        <mxCell id="zfgaVZReXKqY33bPYIgX-23" style="edgeStyle=orthogonalEdgeStyle;rounded=0;orthogonalLoop=1;jettySize=auto;html=1;entryX=0;entryY=0.5;entryDx=0;entryDy=0;" edge="1" parent="1" source="zfgaVZReXKqY33bPYIgX-12" target="BARgVbZ0Zno3lgLKfqqs-7">
          <mxGeometry relative="1" as="geometry" />
        </mxCell>
        <mxCell id="zfgaVZReXKqY33bPYIgX-12" value="" style="shape=cylinder3;whiteSpace=wrap;html=1;boundedLbl=1;backgroundOutline=1;size=15;rotation=90;fillColor=#CCFF99;" vertex="1" parent="1">
          <mxGeometry x="1813" y="-90" width="50" height="120" as="geometry" />
        </mxCell>
        <mxCell id="zfgaVZReXKqY33bPYIgX-13" value="queue" style="text;html=1;align=center;verticalAlign=middle;whiteSpace=wrap;rounded=0;" vertex="1" parent="1">
          <mxGeometry x="1803" y="-45" width="60" height="30" as="geometry" />
        </mxCell>
        <mxCell id="zfgaVZReXKqY33bPYIgX-25" style="edgeStyle=orthogonalEdgeStyle;rounded=0;orthogonalLoop=1;jettySize=auto;html=1;entryX=1;entryY=0.5;entryDx=0;entryDy=0;" edge="1" parent="1" source="zfgaVZReXKqY33bPYIgX-14" target="BARgVbZ0Zno3lgLKfqqs-5">
          <mxGeometry relative="1" as="geometry" />
        </mxCell>
        <mxCell id="zfgaVZReXKqY33bPYIgX-14" value="" style="shape=cylinder3;whiteSpace=wrap;html=1;boundedLbl=1;backgroundOutline=1;size=15;rotation=90;fillColor=#CCFF99;" vertex="1" parent="1">
          <mxGeometry x="1813" y="20" width="50" height="120" as="geometry" />
        </mxCell>
        <mxCell id="zfgaVZReXKqY33bPYIgX-15" value="queue" style="text;html=1;align=center;verticalAlign=middle;whiteSpace=wrap;rounded=0;" vertex="1" parent="1">
          <mxGeometry x="1803" y="65" width="60" height="30" as="geometry" />
        </mxCell>
        <mxCell id="zfgaVZReXKqY33bPYIgX-27" style="edgeStyle=orthogonalEdgeStyle;rounded=0;orthogonalLoop=1;jettySize=auto;html=1;entryX=0.5;entryY=1;entryDx=0;entryDy=0;" edge="1" parent="1" source="zfgaVZReXKqY33bPYIgX-16" target="co5VTCmra7gZKyppTI4R-30">
          <mxGeometry relative="1" as="geometry" />
        </mxCell>
        <mxCell id="zfgaVZReXKqY33bPYIgX-16" value="" style="shape=cylinder3;whiteSpace=wrap;html=1;boundedLbl=1;backgroundOutline=1;size=15;rotation=90;fillColor=#CCFF99;" vertex="1" parent="1">
          <mxGeometry x="1458" y="20" width="50" height="120" as="geometry" />
        </mxCell>
        <mxCell id="zfgaVZReXKqY33bPYIgX-17" value="queue" style="text;html=1;align=center;verticalAlign=middle;whiteSpace=wrap;rounded=0;" vertex="1" parent="1">
          <mxGeometry x="1448" y="65" width="60" height="30" as="geometry" />
        </mxCell>
        <mxCell id="zfgaVZReXKqY33bPYIgX-19" style="edgeStyle=orthogonalEdgeStyle;rounded=0;orthogonalLoop=1;jettySize=auto;html=1;entryX=0.5;entryY=1;entryDx=0;entryDy=0;entryPerimeter=0;" edge="1" parent="1" source="co5VTCmra7gZKyppTI4R-30" target="zfgaVZReXKqY33bPYIgX-10">
          <mxGeometry relative="1" as="geometry" />
        </mxCell>
        <mxCell id="zfgaVZReXKqY33bPYIgX-22" style="edgeStyle=orthogonalEdgeStyle;rounded=0;orthogonalLoop=1;jettySize=auto;html=1;entryX=0.5;entryY=1;entryDx=0;entryDy=0;entryPerimeter=0;" edge="1" parent="1" source="BARgVbZ0Zno3lgLKfqqs-3" target="zfgaVZReXKqY33bPYIgX-12">
          <mxGeometry relative="1" as="geometry" />
        </mxCell>
        <mxCell id="zfgaVZReXKqY33bPYIgX-24" style="edgeStyle=orthogonalEdgeStyle;rounded=0;orthogonalLoop=1;jettySize=auto;html=1;entryX=0.5;entryY=0;entryDx=0;entryDy=0;entryPerimeter=0;" edge="1" parent="1" source="BARgVbZ0Zno3lgLKfqqs-7" target="zfgaVZReXKqY33bPYIgX-14">
          <mxGeometry relative="1" as="geometry">
            <Array as="points">
              <mxPoint x="1983" y="85" />
            </Array>
          </mxGeometry>
        </mxCell>
        <mxCell id="zfgaVZReXKqY33bPYIgX-26" style="edgeStyle=orthogonalEdgeStyle;rounded=0;orthogonalLoop=1;jettySize=auto;html=1;entryX=0.5;entryY=0;entryDx=0;entryDy=0;entryPerimeter=0;" edge="1" parent="1" source="BARgVbZ0Zno3lgLKfqqs-5" target="zfgaVZReXKqY33bPYIgX-16">
          <mxGeometry relative="1" as="geometry" />
        </mxCell>
        <mxCell id="zfgaVZReXKqY33bPYIgX-29" style="edgeStyle=orthogonalEdgeStyle;rounded=0;orthogonalLoop=1;jettySize=auto;html=1;" edge="1" parent="1" source="zfgaVZReXKqY33bPYIgX-30">
          <mxGeometry relative="1" as="geometry">
            <mxPoint x="1523" y="-380" as="targetPoint" />
          </mxGeometry>
        </mxCell>
        <mxCell id="zfgaVZReXKqY33bPYIgX-30" value="Redis" style="rounded=0;whiteSpace=wrap;html=1;fillColor=#66FFFF;" vertex="1" parent="1">
          <mxGeometry x="1463" y="-330" width="120" height="60" as="geometry" />
        </mxCell>
        <mxCell id="zfgaVZReXKqY33bPYIgX-31" style="edgeStyle=orthogonalEdgeStyle;rounded=0;orthogonalLoop=1;jettySize=auto;html=1;" edge="1" parent="1" source="zfgaVZReXKqY33bPYIgX-32">
          <mxGeometry relative="1" as="geometry">
            <mxPoint x="1523" y="-510" as="targetPoint" />
          </mxGeometry>
        </mxCell>
        <mxCell id="zfgaVZReXKqY33bPYIgX-32" value="" style="shape=cylinder3;whiteSpace=wrap;html=1;boundedLbl=1;backgroundOutline=1;size=15;rotation=90;fillColor=#CCFF99;" vertex="1" parent="1">
          <mxGeometry x="1498" y="-470" width="50" height="120" as="geometry" />
        </mxCell>
        <mxCell id="zfgaVZReXKqY33bPYIgX-33" value="queue" style="text;html=1;align=center;verticalAlign=middle;whiteSpace=wrap;rounded=0;" vertex="1" parent="1">
          <mxGeometry x="1488" y="-425" width="60" height="30" as="geometry" />
        </mxCell>
        <mxCell id="zfgaVZReXKqY33bPYIgX-34" value="询价" style="rounded=0;whiteSpace=wrap;html=1;" vertex="1" parent="1">
          <mxGeometry x="1463" y="-570" width="120" height="60" as="geometry" />
        </mxCell>
        <mxCell id="zfgaVZReXKqY33bPYIgX-36" value="&lt;font style=&quot;font-size: 18px;&quot;&gt;查询&lt;/font&gt;" style="text;html=1;align=center;verticalAlign=middle;resizable=0;points=[];autosize=1;strokeColor=none;fillColor=none;" vertex="1" parent="1">
          <mxGeometry x="1178" y="-335" width="60" height="40" as="geometry" />
        </mxCell>
        <mxCell id="zfgaVZReXKqY33bPYIgX-38" value="&lt;font style=&quot;font-size: 18px;&quot;&gt;查询&lt;/font&gt;" style="text;html=1;align=center;verticalAlign=middle;resizable=0;points=[];autosize=1;strokeColor=none;fillColor=none;" vertex="1" parent="1">
          <mxGeometry x="1763" y="-335" width="60" height="40" as="geometry" />
        </mxCell>
        <mxCell id="zfgaVZReXKqY33bPYIgX-39" value="无限循环" style="text;html=1;align=center;verticalAlign=middle;whiteSpace=wrap;rounded=0;" vertex="1" parent="1">
          <mxGeometry x="1253" y="-120" width="60" height="30" as="geometry" />
        </mxCell>
      </root>
    </mxGraphModel>
  </diagram>
</mxfile>
